<?xml version="1.0" encoding="iso-8859-1"?>
<!-- Generator: Adobe Illustrator 17.1.0, SVG Export Plug-In . SVG Version: 6.00 Build 0)  -->
<!DOCTYPE svg PUBLIC "-//W3C//DTD SVG 1.1//EN" "http://www.w3.org/Graphics/SVG/1.1/DTD/svg11.dtd">
<svg version="1.1" id="Capa_1" xmlns="http://www.w3.org/2000/svg" xmlns:xlink="http://www.w3.org/1999/xlink" x="0px" y="0px"
	 viewBox="0 0 368.993 368.993" style="enable-background:new 0 0 368.993 368.993;" xml:space="preserve">
<path d="M368.984,54.239c-0.2-2.363-3.602-4.029-8.014-3.781c-6.717,0.388-14.266,0.905-21.565,1.405
	c-14.843,1.017-30.19,2.068-39.159,2.068c-2.694,0-4.731-0.095-6.056-0.284c-2.423-0.344-6.444-3.176-11.102-6.455
	c-9.942-7-23.56-16.588-39.723-16.588c-2.832,0-5.669,0.304-8.432,0.905c-15.967,3.468-26.362,18.478-35.535,31.72
	c-7.212,10.413-13.44,19.406-20.757,20.741c-0.581,0.106-1.292,0.16-2.113,0.16c-11.548,0.001-42.617-10.297-72.664-20.256
	C75.47,54.461,48.648,45.571,37.373,44.886c-9.289-0.567-14.485,0.895-15.474,4.354c-0.965,3.371,2.688,7.366,4.765,8.659
	c1.681,1.047,3.531,1.921,5.491,2.846c6.889,3.251,14.696,6.936,20.011,20.214c1.742,4.354,6.689,6.354,11.926,8.47
	c5.809,2.349,11.814,4.777,13.118,10.577c1.625,7.235,11.714,11.985,19.137,15.213c-14.482,9.615-55.196,38.507-70.968,68.962
	c-5.19,10.023-11.507,18.457-16.582,25.234c-6.261,8.36-10.04,13.407-8.423,16.639c0.872,1.743,3.156,2.555,7.188,2.555
	c6.55,0,18.407-2.078,39.648-6.949c6.166-1.414,12.875-2.801,19.978-4.269c20.867-4.314,44.304-9.159,58.296-15.895
	c-16.273,25.662-47.031,65.679-69.732,95.214c-18.493,24.06-28.178,36.733-28.911,39.256c-0.215,0.739-0.151,1.343,0.188,1.796
	c0.216,0.286,0.633,0.628,1.398,0.628c6.284,0,44.889-30.939,56.154-43.111c0.346-0.374,0.659-0.707,0.943-1.005
	c-1.55,2.696-3.919,6.456-5.712,9.3c-2.784,4.417-4.514,7.181-4.969,8.286c-1.738,4.226-2.125,6.56-1.291,7.804
	c0.376,0.562,0.99,0.871,1.729,0.871c3.339,0,10.599-6.57,21.294-16.595c3.608-3.381,7.07-6.626,9.599-8.726
	c-0.329,0.689-0.689,1.425-1.021,2.102c-3.162,6.453-4.037,8.638-3.354,9.736c0.239,0.382,0.641,0.602,1.103,0.603h0.001
	c0.092,0,0.19-0.009,0.298-0.029c4.169-0.805,27.33-23.551,34.014-35.516c17.109-30.625,36.712-42.706,55.669-54.39
	c10.362-6.387,21.077-12.991,31.317-22.528c33.605-31.299,32.99-57.396,32.583-74.666c-0.159-6.729-0.284-12.045,1.999-15.033
	c8.293-10.855,24.824-29.571,27.345-31.534c4.745-3.694,26.678-7.092,49.898-10.69c8.26-1.28,16.802-2.604,25.092-4.014
	C368.228,58.044,369.099,55.593,368.984,54.239z"/>
<g>
</g>
<g>
</g>
<g>
</g>
<g>
</g>
<g>
</g>
<g>
</g>
<g>
</g>
<g>
</g>
<g>
</g>
<g>
</g>
<g>
</g>
<g>
</g>
<g>
</g>
<g>
</g>
<g>
</g>
</svg>
